<?xml version="1.0" encoding="UTF-8" standalone="no"?>
<!DOCTYPE svg PUBLIC "-//W3C//DTD SVG 1.0//EN"
 "http://www.w3.org/TR/2001/REC-SVG-20010904/DTD/svg10.dtd" [
 <!ATTLIST svg xmlns:xlink CDATA #FIXED "http://www.w3.org/1999/xlink">
]>
<!-- Generated by Graphviz version 2.20.3 (Wed Oct &#160;8 06:02:12 UTC 2008)
     For user: luc.gillibert -->
<!-- Title: G Pages: 1 -->
<svg width="368pt" height="366pt"
 viewBox="0.00 0.00 368.00 366.00" xmlns="http://www.w3.org/2000/svg" xmlns:xlink="http://www.w3.org/1999/xlink">
<g id="graph0" class="graph" transform="translate(4 362)">


<ellipse style="fill:black;stroke:black;" cx="356" cy="-179" rx="3.6" ry="3.6"/>



<ellipse style="fill:black;stroke:black;" cx="353" cy="-216" rx="3.6" ry="3.6"/>



<path style="fill:none;stroke:red;stroke-width:2;" d="M353,-212C354,-205 355,-190 356,-183"/>



<ellipse style="fill:black;stroke:black;" cx="341" cy="-251" rx="3.6" ry="3.6"/>



<path style="fill:none;stroke:blue;stroke-width:2;" d="M342,-248C344,-241 349,-227 352,-220"/>



<ellipse style="fill:black;stroke:black;" cx="323" cy="-283" rx="3.6" ry="3.6"/>



<path style="fill:none;stroke:red;stroke-width:2;" d="M325,-280C329,-273 336,-260 339,-254"/>



<ellipse style="fill:black;stroke:black;" cx="298" cy="-310" rx="3.6" ry="3.6"/>



<path style="fill:none;stroke:blue;stroke-width:2;" d="M301,-307C306,-302 316,-291 320,-286"/>



<ellipse style="fill:black;stroke:black;" cx="268" cy="-332" rx="3.6" ry="3.6"/>



<path style="fill:none;stroke:red;stroke-width:2;" d="M271,-330C277,-326 289,-317 295,-312"/>



<ellipse style="fill:black;stroke:black;" cx="234" cy="-347" rx="3.6" ry="3.6"/>



<path style="fill:none;stroke:blue;stroke-width:2;" d="M237,-346C244,-343 258,-337 264,-334"/>



<ellipse style="fill:black;stroke:black;" cx="198" cy="-354" rx="3.6" ry="3.6"/>



<path style="fill:none;stroke:red;stroke-width:2;" d="M202,-353C209,-352 223,-349 230,-348"/>



<ellipse style="fill:black;stroke:black;" cx="162" cy="-354" rx="3.6" ry="3.6"/>



<path style="fill:none;stroke:blue;stroke-width:2;" d="M166,-354C173,-354 187,-354 194,-354"/>



<ellipse style="fill:black;stroke:black;" cx="126" cy="-347" rx="3.6" ry="3.6"/>



<path style="fill:none;stroke:green;stroke-width:2;" d="M129,-345C155,-334 312,-264 337,-253"/>



<path style="fill:none;stroke:red;stroke-width:2;" d="M130,-348C137,-349 151,-352 158,-353"/>



<ellipse style="fill:black;stroke:black;" cx="92" cy="-332" rx="3.6" ry="3.6"/>



<path style="fill:none;stroke:blue;stroke-width:2;" d="M95,-333C102,-336 116,-342 122,-345"/>



<ellipse style="fill:black;stroke:black;" cx="62" cy="-310" rx="3.6" ry="3.6"/>



<path style="fill:none;stroke:red;stroke-width:2;" d="M65,-312C71,-317 83,-326 89,-330"/>



<ellipse style="fill:black;stroke:black;" cx="37" cy="-283" rx="3.6" ry="3.6"/>



<path style="fill:none;stroke:blue;stroke-width:2;" d="M40,-286C45,-291 55,-302 59,-307"/>



<ellipse style="fill:black;stroke:black;" cx="19" cy="-251" rx="3.6" ry="3.6"/>



<path style="fill:none;stroke:green;stroke-width:2;" d="M23,-252C53,-258 263,-303 294,-309"/>



<path style="fill:none;stroke:red;stroke-width:2;" d="M21,-254C25,-261 32,-274 35,-280"/>



<ellipse style="fill:black;stroke:black;" cx="7" cy="-216" rx="3.6" ry="3.6"/>



<path style="fill:none;stroke:blue;stroke-width:2;" d="M8,-219C10,-226 15,-240 18,-247"/>



<ellipse style="fill:black;stroke:black;" cx="4" cy="-179" rx="3.6" ry="3.6"/>



<path style="fill:none;stroke:green;stroke-width:2;" d="M6,-182C25,-202 141,-330 159,-351"/>



<path style="fill:none;stroke:red;stroke-width:2;" d="M4,-183C5,-190 6,-205 7,-212"/>



<ellipse style="fill:black;stroke:black;" cx="7" cy="-142" rx="3.6" ry="3.6"/>



<path style="fill:none;stroke:blue;stroke-width:2;" d="M7,-146C6,-153 5,-168 4,-175"/>



<ellipse style="fill:black;stroke:black;" cx="19" cy="-107" rx="3.6" ry="3.6"/>



<path style="fill:none;stroke:green;stroke-width:2;" d="M23,-108C58,-115 318,-171 352,-178"/>



<path style="fill:none;stroke:red;stroke-width:2;" d="M18,-110C16,-117 11,-131 8,-138"/>



<ellipse style="fill:black;stroke:black;" cx="37" cy="-75" rx="3.6" ry="3.6"/>



<path style="fill:none;stroke:green;stroke-width:2;" d="M40,-78C63,-104 242,-303 265,-329"/>



<path style="fill:none;stroke:blue;stroke-width:2;" d="M35,-78C31,-85 24,-98 21,-104"/>



<ellipse style="fill:black;stroke:black;" cx="62" cy="-48" rx="3.6" ry="3.6"/>



<path style="fill:none;stroke:green;stroke-width:2;" d="M62,-52C66,-82 88,-296 92,-328"/>



<path style="fill:none;stroke:red;stroke-width:2;" d="M59,-51C55,-56 44,-67 40,-72"/>



<ellipse style="fill:black;stroke:black;" cx="92" cy="-26" rx="3.6" ry="3.6"/>



<path style="fill:none;stroke:blue;stroke-width:2;" d="M89,-28C83,-33 71,-42 65,-46"/>



<ellipse style="fill:black;stroke:black;" cx="126" cy="-11" rx="3.6" ry="3.6"/>



<path style="fill:none;stroke:green;stroke-width:2;" d="M124,-14C110,-38 23,-188 9,-213"/>



<path style="fill:none;stroke:red;stroke-width:2;" d="M123,-12C116,-15 102,-21 96,-24"/>



<ellipse style="fill:black;stroke:black;" cx="162" cy="-4" rx="3.6" ry="3.6"/>



<path style="fill:none;stroke:green;stroke-width:2;" d="M164,-7C185,-29 329,-189 350,-213"/>



<path style="fill:none;stroke:blue;stroke-width:2;" d="M158,-5C151,-6 137,-9 130,-10"/>



<ellipse style="fill:black;stroke:black;" cx="198" cy="-4" rx="3.6" ry="3.6"/>



<path style="fill:none;stroke:green;stroke-width:2;" d="M198,-8C202,-43 230,-308 234,-343"/>



<path style="fill:none;stroke:red;stroke-width:2;" d="M194,-4C187,-4 173,-4 166,-4"/>



<ellipse style="fill:black;stroke:black;" cx="234" cy="-11" rx="3.6" ry="3.6"/>



<path style="fill:none;stroke:green;stroke-width:2;" d="M232,-14C214,-45 81,-276 64,-307"/>



<path style="fill:none;stroke:blue;stroke-width:2;" d="M230,-10C223,-9 209,-6 202,-5"/>



<ellipse style="fill:black;stroke:black;" cx="268" cy="-26" rx="3.6" ry="3.6"/>



<path style="fill:none;stroke:green;stroke-width:2;" d="M265,-27C236,-40 40,-127 11,-140"/>



<path style="fill:none;stroke:red;stroke-width:2;" d="M265,-25C258,-22 244,-16 238,-13"/>



<ellipse style="fill:black;stroke:black;" cx="298" cy="-48" rx="3.6" ry="3.6"/>



<path style="fill:none;stroke:green;stroke-width:2;" d="M298,-52C302,-80 320,-251 323,-279"/>



<path style="fill:none;stroke:blue;stroke-width:2;" d="M295,-46C289,-42 277,-33 271,-28"/>



<ellipse style="fill:black;stroke:black;" cx="323" cy="-75" rx="3.6" ry="3.6"/>



<path style="fill:none;stroke:green;stroke-width:2;" d="M319,-74C292,-68 123,-33 96,-27"/>



<path style="fill:none;stroke:red;stroke-width:2;" d="M320,-72C316,-67 305,-56 301,-51"/>



<ellipse style="fill:black;stroke:black;" cx="341" cy="-107" rx="3.6" ry="3.6"/>



<path style="fill:none;stroke:green;stroke-width:2;" d="M339,-110C324,-137 216,-323 200,-351"/>



<path style="fill:none;stroke:blue;stroke-width:2;" d="M339,-104C335,-97 328,-84 325,-78"/>



<ellipse style="fill:black;stroke:black;" cx="353" cy="-142" rx="3.6" ry="3.6"/>



<path style="fill:none;stroke:green;stroke-width:2;" d="M353,-146C354,-153 355,-168 356,-175"/>



<path style="fill:none;stroke:green;stroke-width:2;" d="M349,-144C317,-158 73,-267 41,-281"/>



<path style="fill:none;stroke:red;stroke-width:2;" d="M352,-139C350,-132 345,-118 342,-111"/>

</g>
</svg>
